<svg width="799" height="586" viewBox="0 0 799 586" fill="none" xmlns="http://www.w3.org/2000/svg">
<path d="M31.9653 163.717C23.4876 163.717 15.3571 167.264 9.36241 173.579C3.36776 179.894 0 188.458 0 197.388L0 447.378C0 456.308 3.36776 464.873 9.36241 471.187C15.3571 477.502 23.4876 481.05 31.9653 481.05C40.443 481.05 48.5735 477.502 54.5681 471.187C60.5628 464.873 63.9305 456.308 63.9305 447.378V197.388C63.9305 188.458 60.5628 179.894 54.5681 173.579C48.5735 167.264 40.443 163.717 31.9653 163.717Z" fill="#F26522"/>
<path d="M115.675 292.029C107.197 292.029 99.0668 295.576 93.0722 301.891C87.0775 308.205 83.7098 316.77 83.7098 325.7V445.668C83.7098 454.598 87.0775 463.163 93.0722 469.477C99.0668 475.792 107.197 479.339 115.675 479.339C124.153 479.339 132.283 475.792 138.278 469.477C144.273 463.163 147.64 454.598 147.64 445.668V325.7C147.64 316.77 144.273 308.205 138.278 301.891C132.283 295.576 124.153 292.029 115.675 292.029Z" fill="#F26522"/>
<path d="M115.687 190.278C106.041 190.278 96.79 194.314 89.9692 201.499C83.1484 208.684 79.3165 218.429 79.3165 228.59C79.3165 238.751 83.1484 248.495 89.9692 255.68C96.79 262.865 106.041 266.901 115.687 266.901C120.463 266.901 125.193 265.91 129.605 263.985C134.018 262.06 138.027 259.238 141.405 255.68C144.782 252.123 147.461 247.899 149.289 243.251C151.117 238.603 152.057 233.621 152.057 228.59C152.057 223.558 151.117 218.577 149.289 213.928C147.461 209.28 144.782 205.057 141.405 201.499C138.027 197.942 134.018 195.12 129.605 193.194C125.193 191.269 120.463 190.278 115.687 190.278Z" fill="#F26522"/>
<path d="M263.69 424.545C250.829 424.545 238.496 419.164 229.402 409.585C220.308 400.006 215.2 387.014 215.2 373.467C215.2 359.92 220.308 346.928 229.402 337.349C238.496 327.77 250.829 322.389 263.69 322.389C276.55 322.389 288.884 327.77 297.978 337.349C307.071 346.928 312.18 359.92 312.18 373.467C312.18 387.014 307.071 400.006 297.978 409.585C288.884 419.164 276.55 424.545 263.69 424.545V424.545ZM263.69 265.492C236.508 265.495 210.44 276.871 191.22 297.117C171.999 317.364 161.2 344.823 161.197 373.455C161.197 402.089 171.996 429.55 191.217 449.797C210.438 470.044 236.507 481.418 263.69 481.418C280.614 481.442 297.278 477.031 312.18 468.582V477.263C312.18 490.81 307.071 503.802 297.978 513.381C288.884 522.96 276.55 528.341 263.69 528.341C253.833 528.342 244.209 525.18 236.101 519.276C227.992 513.373 221.783 505.007 218.301 495.293C216.316 489.944 212.837 485.356 208.322 482.137C203.808 478.917 198.472 477.217 193.02 477.263C188.673 477.256 184.389 478.361 180.536 480.481C176.682 482.601 173.375 485.675 170.897 489.437C168.419 493.199 166.844 497.539 166.307 502.083C165.771 506.627 166.288 511.241 167.816 515.528C175.196 536.02 188.32 553.662 205.445 566.111C222.569 578.56 242.883 585.227 263.69 585.226C290.872 585.223 316.94 573.847 336.16 553.601C355.38 533.354 366.18 505.895 366.183 477.263V373.455C366.18 344.823 355.38 317.364 336.16 297.117C316.94 276.871 290.872 265.495 263.69 265.492" fill="#F26522"/>
<path d="M480.103 424.545C467.242 424.545 454.909 419.164 445.815 409.585C436.721 400.006 431.612 387.014 431.612 373.467C431.612 359.92 436.721 346.928 445.815 337.349C454.909 327.77 467.242 322.389 480.103 322.389C492.963 322.389 505.297 327.77 514.391 337.349C523.484 346.928 528.593 359.92 528.593 373.467C528.593 387.014 523.484 400.006 514.391 409.585C505.297 419.164 492.963 424.545 480.103 424.545V424.545ZM480.103 265.492C452.921 265.495 426.853 276.871 407.633 297.117C388.412 317.364 377.613 344.823 377.61 373.455C377.61 402.089 388.408 429.55 407.629 449.797C426.851 470.044 452.92 481.418 480.103 481.418C497.027 481.442 513.69 477.031 528.593 468.582V477.263C528.593 490.81 523.484 503.802 514.391 513.381C505.297 522.96 492.963 528.341 480.103 528.341C470.246 528.342 460.622 525.18 452.513 519.276C444.405 513.373 438.196 505.007 434.714 495.293C432.729 489.944 429.25 485.356 424.735 482.137C420.221 478.917 414.884 477.217 409.433 477.263C405.086 477.256 400.802 478.361 396.948 480.481C393.095 482.601 389.788 485.675 387.31 489.437C384.831 493.199 383.257 497.539 382.72 502.083C382.183 506.627 382.701 511.241 384.229 515.528C391.609 536.02 404.733 553.662 421.857 566.111C438.982 578.56 459.296 585.227 480.103 585.226C507.285 585.223 533.352 573.847 552.573 553.601C571.793 533.354 582.592 505.895 582.595 477.263V373.455C582.592 344.823 571.793 317.364 552.573 297.117C533.352 276.871 507.285 265.495 480.103 265.492Z" fill="#F26522"/>
<path d="M696.518 424.545C683.658 424.545 671.324 419.163 662.23 409.584C653.137 400.005 648.028 387.013 648.028 373.466C648.028 359.92 653.137 346.928 662.23 337.349C671.324 327.77 683.658 322.388 696.518 322.388C709.379 322.388 721.712 327.77 730.806 337.349C739.9 346.928 745.009 359.92 745.009 373.466C745.009 387.013 739.9 400.005 730.806 409.584C721.712 419.163 709.379 424.545 696.518 424.545V424.545ZM772.01 265.492C767.16 265.491 762.4 266.866 758.23 269.472C754.059 272.078 750.631 275.819 748.307 280.302C732.605 270.582 714.719 265.469 696.507 265.492C669.325 265.495 643.258 276.871 624.037 297.117C604.817 317.363 594.018 344.822 594.015 373.455C594.015 402.089 604.813 429.549 624.034 449.796C643.255 470.043 669.325 481.418 696.507 481.418C715.064 481.446 733.276 476.142 749.184 466.077C751.611 470.141 754.977 473.49 758.967 475.812C762.957 478.134 767.441 479.351 771.999 479.352C775.545 479.352 779.056 478.616 782.332 477.187C785.608 475.757 788.584 473.662 791.091 471.021C793.599 468.38 795.588 465.245 796.945 461.794C798.302 458.343 799 454.645 799 450.909V293.923C799 286.379 796.155 279.145 791.091 273.811C786.028 268.477 779.16 265.48 771.999 265.48" fill="#F26522"/>
<path d="M604.863 96.2939C604.863 87.0882 601.391 78.2596 595.212 71.7502C589.032 65.2407 580.651 61.5837 571.911 61.5837C563.172 61.5837 554.791 65.2407 548.611 71.7502C542.432 78.2596 538.96 87.0882 538.96 96.2939C538.96 105.5 542.432 114.328 548.611 120.838C554.791 127.347 563.172 131.004 571.911 131.004C580.651 131.004 589.032 127.347 595.212 120.838C601.391 114.328 604.863 105.5 604.863 96.2939" fill="#F26522"/>
<path d="M546.4 34.7103C546.4 25.5045 542.929 16.6759 536.749 10.1665C530.57 3.65704 522.188 0 513.449 0C504.71 0 496.328 3.65704 490.149 10.1665C483.969 16.6759 480.497 25.5045 480.497 34.7103C480.497 43.916 483.969 52.7446 490.149 59.254C496.328 65.7635 504.71 69.4205 513.449 69.4205C522.188 69.4205 530.57 65.7635 536.749 59.254C542.929 52.7446 546.4 43.916 546.4 34.7103" fill="#F26522"/>
<path d="M550.345 162.7C546.521 158.606 541.607 155.832 536.253 154.746C530.899 153.66 525.358 154.312 520.364 156.617C511.386 160.897 501.383 162.196 491.687 160.34C481.991 158.484 473.062 153.561 466.087 146.228C459.125 138.881 454.452 129.475 452.69 119.262C450.929 109.048 452.161 98.5116 456.225 89.0545C458.413 83.7937 459.032 77.957 458 72.3173C456.969 66.6776 454.336 61.5009 450.45 57.4725C447.38 54.2286 443.609 51.8175 439.46 50.4462C435.311 49.0749 430.908 48.7842 426.629 49.5992C422.35 50.4141 418.323 52.3103 414.893 55.1252C411.462 57.9401 408.732 61.5896 406.935 65.7605C398.397 85.7477 395.835 107.998 399.587 129.556C403.339 151.113 413.228 170.959 427.942 186.456C442.653 201.954 461.493 212.371 481.959 216.324C502.424 220.276 523.547 217.577 542.521 208.584C546.481 206.691 549.945 203.814 552.618 200.201C555.29 196.587 557.09 192.345 557.864 187.838C558.637 183.33 558.361 178.693 557.06 174.322C555.758 169.952 553.469 165.98 550.389 162.746" fill="#F26522"/>
</svg>
